HIERARCHY
ROOT SpineBase
{
  OFFSET 0.000000 0.000000 0.000000
  CHANNELS 6 Xposition Yposition Zposition Zrotation Xrotation Yrotation
  JOINT SpineMid
  {
    OFFSET 0.000000 31.840385 0.000000
    CHANNELS 3 Zrotation Xrotation Yrotation
    JOINT SpineShoulder
    {
      OFFSET 0.103654 23.514480 -0.794718
      CHANNELS 3 Zrotation Xrotation Yrotation
      JOINT Neck
      {
        OFFSET 0.117002 7.782402 -0.620533
        CHANNELS 3 Zrotation Xrotation Yrotation
        JOINT Head
        {
          OFFSET -6.809583 11.169918 1.498210
          CHANNELS 3 Zrotation Xrotation Yrotation
          End Site
          {
            OFFSET 0 0 0
          }
        }
      }
      JOINT ShoulderLeft
      {
        OFFSET -10.310800 -2.598141 13.138698
        CHANNELS 3 Zrotation Xrotation Yrotation
        JOINT ElbowLeft
        {
          OFFSET -2.315066 -28.094908 0.546650
          CHANNELS 3 Zrotation Xrotation Yrotation
          JOINT WristLeft
          {
            OFFSET -0.955360 -25.521938 -11.497664
            CHANNELS 3 Zrotation Xrotation Yrotation
            JOINT HandLeft
            {
              OFFSET 1.746423 -5.731565 -0.468196
              CHANNELS 3 Zrotation Xrotation Yrotation
              JOINT HandTipLeft
              {
                OFFSET 2.385884 -4.144988 -1.670333
                CHANNELS 3 Zrotation Xrotation Yrotation
                End Site
                {
                  OFFSET 0 0 0
                }
              }
              JOINT ThumbLeft
              {
                OFFSET -2.503920 -1.182471 0.316560
                CHANNELS 3 Zrotation Xrotation Yrotation
                End Site
                {
                  OFFSET 0 0 0
                }
              }
            }
          }
        }
      }
      JOINT ShoulderRight
      {
        OFFSET 10.004144 -3.718790 -12.283773
        CHANNELS 3 Zrotation Xrotation Yrotation
        JOINT ElbowRight
        {
          OFFSET 7.604649 -24.628974 -4.394756
          CHANNELS 3 Zrotation Xrotation Yrotation
          JOINT WristRight
          {
            OFFSET -6.209655 -23.294168 -2.880233
            CHANNELS 3 Zrotation Xrotation Yrotation
            JOINT HandRight
            {
              OFFSET -3.235864 -7.556778 -0.648562
              CHANNELS 3 Zrotation Xrotation Yrotation
              JOINT HandTipRight
              {
                OFFSET -3.889150 -7.532763 -1.280503
                CHANNELS 3 Zrotation Xrotation Yrotation
                End Site
                {
                  OFFSET 0 0 0
                }
              }
              JOINT ThumbRight
              {
                OFFSET -2.983096 2.706033 0.185769
                CHANNELS 3 Zrotation Xrotation Yrotation
                End Site
                {
                  OFFSET 0 0 0
                }
              }
            }
          }
        }
      }
    }
  }
  JOINT HipLeft
  {
    OFFSET -4.283956 0.198677 1.113419
    CHANNELS 3 Zrotation Xrotation Yrotation
    JOINT KneeLeft
    {
      OFFSET 5.110176 -31.039373 -1.021727
      CHANNELS 3 Zrotation Xrotation Yrotation
      JOINT AnkleLeft
      {
        OFFSET 15.724040 -38.581212 6.043550
        CHANNELS 3 Zrotation Xrotation Yrotation
        JOINT FootLeft
        {
          OFFSET -3.759077 -7.429783 -0.971473
          CHANNELS 3 Zrotation Xrotation Yrotation
          End Site
          {
            OFFSET 0 0 0
          }
        }
      }
    }
  }
  JOINT HipRight
  {
    OFFSET 4.898409 1.756338 -8.362203
    CHANNELS 3 Zrotation Xrotation Yrotation
    JOINT KneeRight
    {
      OFFSET 8.942080 -34.676339 0.547486
      CHANNELS 3 Zrotation Xrotation Yrotation
      JOINT AnkleRight
      {
        OFFSET 7.997440 -34.591256 8.272330
        CHANNELS 3 Zrotation Xrotation Yrotation
        JOINT FootRight
        {
          OFFSET -3.532047 -7.823731 -2.860827
          CHANNELS 3 Zrotation Xrotation Yrotation
          End Site
          {
            OFFSET 0 0 0
          }
        }
      }
    }
  }
}
MOTION
Frames: 5
Frame Time: 0.033333
-32.759037 77.617772 338.037410 -0.390452 0.208296 44.225832 0.134518 -0.421598 -44.224627 -0.000000 0.000000 0.000000 -0.000000 0.000000 0.000000 0.000000 0.000000 0.000000 -0.000000 0.000000 0.000000 1.825451 -8.261128 -0.393871 -13.561755 18.467160 7.612826 7.890276 -3.674665 1.860232 0.000000 0.000000 0.000000 0.000000 0.000000 0.000000 2.181276 -1.003223 -0.677013 -3.876356 2.055288 0.672809 0.569885 0.024578 -0.292849 -2.560276 0.082271 0.353646 0.000000 0.000000 0.000000 0.000000 0.000000 0.000000 0.134518 -0.421598 -44.224627 -0.000000 0.000000 0.000000 0.017006 -1.960629 0.992409 0.000000 0.000000 0.000000 0.508051 0.781069 -43.944974 0.565720 -1.125136 -0.275271 -3.373872 1.299472 0.673882 0.000000 0.000000 0.000000
-32.538833 77.702423 337.928238 -0.031114 0.337896 43.408492 -0.209599 -0.266853 -43.408888 -0.000000 0.000000 0.000000 -0.815204 0.444592 0.385016 0.000000 0.000000 0.000000 -0.000000 0.000000 0.000000 2.554497 -7.583331 -0.719461 -17.968243 14.438718 7.640055 9.402884 -2.702011 2.156660 0.000000 0.000000 0.000000 0.000000 0.000000 0.000000 3.870761 0.236941 -0.619108 -9.330905 3.499766 0.407140 -2.171035 4.831935 -2.383720 -1.887917 -5.256780 2.235230 0.000000 0.000000 0.000000 0.000000 0.000000 0.000000 -1.357039 -0.604543 -43.568207 -0.196659 1.376076 0.177246 6.241346 3.481938 -2.867325 0.000000 0.000000 0.000000 -0.756858 1.195248 -43.249143 1.400488 -0.689871 -0.146880 -2.489780 0.911025 0.512539 0.000000 0.000000 0.000000
-32.209837 77.812742 337.737484 0.470796 0.553178 42.664878 -0.721082 -0.087689 -42.667702 -0.000000 0.000000 0.000000 -1.450778 0.307815 0.389015 0.000000 0.000000 0.000000 -0.000000 0.000000 0.000000 3.155515 -7.381415 -0.970827 -21.689810 10.010938 6.878502 9.202252 -0.099585 3.626209 0.000000 0.000000 0.000000 0.000000 0.000000 0.000000 5.916819 2.468828 -0.413727 -15.949948 6.321501 -0.598735 -7.624434 11.092217 -4.477475 0.929386 -13.206884 4.322573 0.000000 0.000000 0.000000 0.000000 0.000000 0.000000 -3.152201 -0.492957 -42.951353 0.619017 2.365334 0.310734 10.212268 4.692867 -4.340656 0.000000 0.000000 0.000000 -2.441030 1.620310 -42.659643 2.422115 -0.089994 0.016851 -1.878917 0.398998 0.509100 0.000000 0.000000 0.000000
-31.945917 78.021214 337.684809 0.892243 0.538718 41.799742 -1.024205 0.193134 -41.802210 1.030090 0.249001 0.076178 -3.059538 -0.264261 0.173320 0.000000 0.000000 0.000000 -1.030430 -0.247591 -0.080643 3.811074 -8.087540 -1.183900 -27.276660 3.912677 5.313896 11.824738 5.050124 5.576918 0.000000 0.000000 0.000000 0.000000 0.000000 0.000000 6.876112 5.356330 -0.109934 -22.838027 10.605181 -2.352898 -14.362552 16.417068 -6.068286 0.359608 -17.390609 3.573221 0.000000 0.000000 0.000000 0.000000 0.000000 0.000000 -4.672550 -0.291175 -42.187986 1.577268 3.535067 0.542831 12.046616 4.577792 -4.934591 0.000000 0.000000 0.000000 -3.640731 2.236127 -41.856460 3.311396 0.225704 0.103209 -1.346752 -0.045692 0.509932 0.000000 0.000000 0.000000
-31.753039 78.072622 337.784312 1.173684 0.338327 40.369564 -1.113352 0.502457 -40.368148 1.524595 0.064009 0.119787 -3.933568 -0.501642 -0.081593 0.000000 0.000000 0.000000 -1.524727 -0.060799 -0.121447 3.756629 -10.989528 -0.961666 -30.817605 2.126422 4.873549 12.161779 4.163133 4.552714 0.000000 0.000000 0.000000 0.000000 0.000000 0.000000 8.936805 10.139476 0.234162 -29.831284 16.277188 -5.232188 -18.684223 19.733041 -8.075942 -5.007984 -17.636108 -0.234481 0.000000 0.000000 0.000000 0.000000 0.000000 0.000000 -5.902460 -0.107166 -40.834544 2.684554 4.809992 0.837707 14.018238 5.140396 -6.215037 0.000000 0.000000 0.000000 -4.063326 3.035844 -40.333007 4.684982 0.357360 0.331774 -1.782411 -0.849964 0.284516 0.000000 0.000000 0.000000
